<!-- Generator: Adobe Illustrator 22.1.0, SVG Export Plug-In  -->
<svg version="1.1"
	 xmlns="http://www.w3.org/2000/svg" xmlns:xlink="http://www.w3.org/1999/xlink" xmlns:a="http://ns.adobe.com/AdobeSVGViewerExtensions/3.0/"
	 x="0px" y="0px" width="763.807px" height="154.177px" viewBox="0 0 763.807 154.177"
	 style="enable-background:new 0 0 763.807 154.177;" xml:space="preserve">
<style type="text/css">
	.st0{fill:#B4975A;}
	.st1{fill:#231F20;}
</style>
<defs>
</defs>
<g>
	<g>
		<g>
			<g>
				<path class="st0" d="M88.598,21.041c-2.01-0.296-2.576,7.848-10.81,8.661c2.002,0.624,7.113-0.48,9.361-3.613
					c-0.866,2.136-2.347,6.067-6.794,8.625c3.07-0.772,7.337-4.272,9.011-8.427c0.44,1.454-0.61,5.367-1.386,7
					C90.676,31.73,93.8,22.796,88.598,21.041z"/>
				<path class="st0" d="M80.414,20.04c1.557,2.396,0.054,6.211-2.962,8.122c1.454-0.251,6.978-3.114,5.973-9.028
					c-0.44-2.612-1.661-2.221-2.055-2.235C80.966,16.881,78.655,17.873,80.414,20.04z"/>
				<path class="st0" d="M94.298,25.161c-0.202,2.414-1.418,6.942-7.66,10.289c-4.492,2.486-6.915,5.807-5.941,15.607l1.243-0.341
					c-0.938-9.37,2.388-11.569,5.569-13.345c5.318-2.841,8.571-7.314,8.943-12.241c0.292-3.949-2.23-7.714-4.209-9.199
					c-0.359-0.206-0.503-0.556-0.148-0.767c1.871-1.104,1.445-2.167,0.978-2.643c-0.435-0.511-1.207-0.907-1.97-1.225
					c-0.763-0.323-0.377-0.659-0.225-1.198c0.301-0.817,2.648-0.952,3.554-1.108c-1.216-1.297-2.122-1.549-4.165-1.432
					C91.866,2.203,86.943,0,86.05,0c-0.907,0.013-1.221-0.045,0.372,2.02c1.58,2.055-1.23,1.481-2.567-0.574
					c-0.718-1.149-3.612-1.75-5.398,0.619c-0.687,0.907,1.544,0.924,2.441,1.176c1.22,0.35,1.571,0.754,1.571,1.292
					c0,0.534-0.422,1.041-1.476,0.534c-1.068-0.507-3.029-0.633-3.702-0.323c-0.678,0.292-4.007,0.871-1.835,4.573
					c2.163,3.711,6.291,0.629,7.099-0.476c0.799-1.086,2.114-0.96,2.275-0.624c0.363,0.687,0.386,1.126,0.094,1.602
					c-0.318,0.485-1.283,2.724-0.494,3.123C94.221,17.806,94.517,22.033,94.298,25.161z"/>
				<path class="st0" d="M71.829,23.298c-2.796-6.009-9.347-8.49-14.651-5.546c-1.948,1.077-3.446,2.728-4.434,4.712
					c0.956-3.635,3.298-6.785,6.664-8.346c5.932-2.693,12.672,0.466,15.069,7.063c1.997,5.483,0.328,11.577-3.662,15.046
					C73.288,32.699,73.862,27.678,71.829,23.298z"/>
				<path class="st0" d="M69.173,26.857c-3.056-3.877-8.378-4.622-11.918-1.611c-1.297,1.068-2.15,2.531-2.594,4.129
					c0.153-2.791,1.418-5.452,3.716-7.131c4.021-2.916,9.594-1.728,12.466,2.648c2.369,3.648,2.073,8.319-0.381,11.492
					C71.758,33.426,71.389,29.702,69.173,26.857z"/>
				<path class="st0" d="M65.551,30.101c-4.214-1.49-8.912,0.404-10.496,4.196c-0.646,1.521-0.646,3.132-0.188,4.636
					c-1.279-2.213-1.49-4.932-0.251-7.359c2.024-3.998,7.144-5.672,11.411-3.702c3.559,1.602,5.38,5.197,4.752,8.648
					C70.56,33.754,68.612,31.178,65.551,30.101z"/>
				<path class="st0" d="M73.701,35.935c1.674,0.817,6.78,2.347,4.716,14.593l-1.97,0.579c0.866-4.976,0.381-15.549-8.441-10.635
					L73.701,35.935z"/>
				<g>
					<g>
						<path class="st0" d="M43.29,50.582c0,0,1.665,6.211,1.777,6.637c0,0.507,0,31.264,0,31.264c0,6.614,1.454,9.271,3.989,11.622
							c2.077,1.956,22.666,14.494,26.803,16.976l1.171,0.704l1.189-0.704c4.115-2.481,24.721-15.019,26.821-16.976
							c2.513-2.352,3.953-5.008,3.953-11.622c0,0,0-30.757,0-31.264c0.139-0.426,1.791-6.637,1.791-6.637H43.29z M105.812,55.724
							c-0.103,0.534-0.161,1.777-0.161,2.755v30.003c0,5.753-1.176,7.31-2.711,8.741c-1.198,1.122-24.196,15.365-24.196,15.365
							c-0.448,0.269-1.055,0.403-1.647,0.395c-0.601,0.009-1.198-0.126-1.656-0.395c0,0-22.962-14.243-24.174-15.365
							c-1.535-1.431-2.71-2.989-2.71-8.741V58.48c0-0.978-0.085-2.221-0.166-2.755c0-0.099,0-0.251,0.022-0.368
							c0-0.027-0.004-0.05-0.004-0.076c-0.121-0.66,0.354-1.216,1.108-1.391c0.009,0,0.022,0,0.022,0
							c0.076-0.013,0.144-0.013,0.211-0.013c0.063-0.018,0.095-0.036,0.144-0.036h54.414c0.045,0,0.09,0.018,0.125,0.036
							c0.072,0,0.144,0,0.233,0.013h0.027c0.754,0.175,1.234,0.732,1.095,1.391c0,0.027,0,0.049-0.014,0.076
							C105.812,55.473,105.812,55.626,105.812,55.724z"/>
					</g>
				</g>
				<g>
					<path class="st0" d="M12.933,110.084l-0.359,2.091c0,0,3.276,4.016,17.658,6.058l1.328-4.344
						C24.129,115.577,16.222,114.15,12.933,110.084z"/>
					<path class="st0" d="M13.61,105.516l-0.458,2.854c0,0,7.126,4.209,17.523,3.226C23.814,110.587,17.371,109.774,13.61,105.516z"
						/>
					<path class="st0" d="M14.139,101.917l-0.385,2.54c0,0,6.466,4.03,14.723,2.729C22.396,106.916,17.263,105.498,14.139,101.917z"
						/>
					<path class="st0" d="M24.129,100.871l0.866-4.245c-14.378-0.606-14.283,7.283,0.309,6.314
						c6.256-0.403,14.445,1.301,18.667,6.121l1.05-0.099l-0.108-0.251C41.131,101.523,27.925,100.84,24.129,100.871z"/>
					<path class="st0" d="M77.017,150.839c0,0,45.525-21.118,46.359-21.719c2.953-2.118,1.413-6.395-1.198-13.848
						c-0.395-1.104-0.319-1.333,0.323-1.382l7.269,13.588l-52.754,26.7l-52.74-26.7l7.283-13.588
						c0.641,0.049,0.718,0.278,0.318,1.382c-2.621,7.454-4.142,11.73-1.207,13.848C31.515,129.721,77.017,150.839,77.017,150.839"/>
					<polygon class="st0" points="77.017,144.601 119.131,126.885 77.017,147.329 34.934,126.885 					"/>
					<polygon class="st0" points="77.017,138.085 119.131,121.28 77.017,140.805 34.934,121.28 					"/>
					<path class="st0" d="M77.017,129.972c2.253,0,24.151-8.14,35.181-13.408l-3.042-6.408c1.342-0.592,5.237-0.763,7.741-0.207
						c7.915,1.795,3.325,4.914-0.171,6.646c-3.482,1.737-39.709,18.026-39.709,18.026s-36.204-16.289-39.704-18.026
						c-3.482-1.732-8.055-4.851-0.166-6.646c2.531-0.556,6.403-0.386,7.745,0.207l-3.038,6.408
						C52.879,121.832,74.759,129.972,77.017,129.972z"/>
					<path class="st0" d="M141.115,110.084l0.372,2.091c0,0-3.285,4.016-17.68,6.058l-1.306-4.344
						C129.923,115.577,137.829,114.15,141.115,110.084z"/>
					<path class="st0" d="M140.446,105.516l0.453,2.854c0,0-7.113,4.209-17.523,3.226
						C130.241,110.587,136.676,109.774,140.446,105.516z"/>
					<path class="st0" d="M139.925,101.917l0.368,2.54c0,0-6.448,4.03-14.727,2.729
						C131.664,106.916,136.775,105.498,139.925,101.917z"/>
					<path class="st0" d="M129.923,100.871l-0.884-4.245c14.387-0.606,14.319,7.283-0.283,6.314
						c-6.255-0.403-14.467,1.301-18.676,6.121l-1.055-0.099l0.112-0.251C112.907,101.523,126.153,100.84,129.923,100.871z"/>
				</g>
				<path class="st0" d="M52.686,53.274v34.095c0,5.021,1.055,7.018,2.881,8.75c1.611,1.526,19.004,11.577,20.996,12.812
					l0.467,0.291l0.471-0.291c1.983-1.234,19.381-11.286,20.996-12.812c1.844-1.732,2.899-3.729,2.899-8.75V53.274H52.686z
					 M99.665,52.484v33.148c0,0.453-0.032,1.046-0.077,1.629l0.077,0.108c0,4.945-1.086,6.372-2.401,7.633
					c-1.077,1.023-18.659,11.313-18.659,11.313c-0.862,0.543-2.28,0.543-3.127,0c0,0-17.572-10.289-18.667-11.313
					c-1.319-1.261-2.401-2.688-2.401-7.633v-1.737v-8.256V52.484H99.665z"/>
				<g>
					<g>
						<g>
							<path class="st0" d="M80.678,87.225c2.235,0.305,1.912,2.432,1.912,3.994v2.558c0,0.619,0.009,1.382,0.009,1.382
								c1.23-0.157,2.069-0.413,2.836-0.619c0.287-0.063,0.848-0.242,0.848-0.242s-0.682-0.265-0.682-1.405c0,0,0-1.404,0-2.423
								c0-1.979,0.332-2.93,1.548-3.245c0.175-0.049,0.175-0.242,0.175-0.242h-6.843C80.481,86.983,80.499,87.194,80.678,87.225z
								 M86.821,59.96c-0.031,0.175,0.018,0.341,0.188,0.404c0.902,0.18,1.589,1.342,1.589,2.648v10.402
								c0,1.75,0.09,3.59-0.054,5.191c-0.269,3.025-2.576,5.735-7.045,5.21c-2.442-0.283-3.902-1.635-4.54-2.611h9.324
								c0,0,0.094-4.398,0.094-5.56c0,0-0.018-0.121-0.121-0.121c-0.22,0.018-0.696,0.099-1.023,0.09
								c-0.852-0.027-3.971-0.996-7.525-0.996c-5.295,0-9.392,2.037-11.586,5.403v-9.298h3.976c2.58,0,3.994,0.381,4.263,2.069
								c0.032,0.162-0.076,0.462,0.462,0.462v-5.986c0,0-0.431-0.09-0.44,0.431c-0.269,1.544-1.714,2.208-4.285,2.208h-3.976v-9.159
								h1.49c5.717,0,8.36,0.444,9.343,3.393c0.125,0.337,0.278,0.337,0.543,0.3l-0.659-4.478l-15.841-0.009
								c-0.013,0.184,0.031,0.318,0.193,0.404c0.897,0.161,1.606,1.346,1.606,2.656v8.185l-0.013,6.938
								c0,1.306-0.696,2.477-1.593,2.643c-0.143,0.04-0.206,0.188-0.206,0.426h4.478c-0.696,1.449-1.09,3.15-1.09,4.999
								c0,6.641,5.389,11.191,13.372,11.191c2.778,0,6.637-1.077,8.957-1.961c0.175-0.058,0.22-0.561-0.086-0.431
								c-2.114,0.633-5.362,1.463-8.45,1.413c-5.932-0.13-9.692-4.065-9.692-10.527c0-1.728,0.273-3.307,0.803-4.685h5.672
								c1.518,2.248,4.878,3.706,7.063,3.872c8.746,0.606,10.294-5.012,9.926-11.959l0.013-10.105c0-1.297,0.696-2.45,1.575-2.638
								c0.166-0.045,0.216-0.17,0.216-0.413H86.821z M76.573,80.333c-0.022-0.745,1.112-0.633,1.112-2.055
								c0-0.934-0.807-1.544-1.548-1.544c-1.422,0-1.983,0.938-1.983,2.046c0,0.574,0.138,1.116,0.363,1.629h-4.909
								c1.423-3.033,4.155-4.945,7.952-4.945c2.872,0,6.206,0.731,6.987,2.701c0.381,0.974-2.93,2.244-5.111,2.244h-2.843
								C76.589,80.387,76.574,80.352,76.573,80.333z M76.878,70.891c0,1.445,1.207,2.504,2.863,2.504
								c1.014,0,1.759-0.278,2.45-0.942c0.462,0.494,0.592,0.862,2.109,0.862h1.113c0.023-0.063-0.013-0.144-0.09-0.153
								c-0.916-0.045-1.844-1.14-2.378-1.867c0.476-0.749,0.893-1.813,1.068-2.468c0.103-0.404,0.211-0.978,1.31-1.292
								c0.076-0.014,0.112-0.063,0.112-0.153h-3.097c-0.004,0.062,0.018,0.117,0.085,0.139c0.754,0.274,1.027,0.467,1.041,1.369
								c0.013,0.677-0.337,1.49-0.741,2.1c-0.826-1.068-1.571-2.163-2.302-3.231c0.704-0.539,1.534-0.915,1.534-1.777
								c0-0.655-0.39-1.149-1.279-1.171c-1.418-0.072-2.203,0.749-2.203,1.656c0,0.341,0.072,0.799,0.642,1.759
								C77.964,68.872,76.878,69.617,76.878,70.891z M80.589,65.089c0.561,0.023,0.803,0.426,0.754,0.929
								c-0.058,0.431-0.39,1.14-1.09,1.481c-0.588-0.862-0.722-1.315-0.722-1.566C79.53,65.354,80.081,65.085,80.589,65.089z
								 M79.292,68.5c0.821,1.243,1.732,2.455,2.647,3.684c-0.332,0.404-2.23,1.068-3.361-0.637
								C77.591,69.841,78.578,68.872,79.292,68.5z"/>
						</g>
					</g>
				</g>
				<path class="st0" d="M130.542,32.686c-1.059,1.221-7.499,3.823-7.499,3.823c1.458-1.948,4.003-3.5,7.499-5.295
					c0.655-1.468-0.498-7.988-2.289-10.267c-2.607,0.812-6.349,3.096-7.013,3.733l-0.808-0.637
					c-1.301,0.413-3.594,3.545-3.594,5.744c-1.634-3.015-5.367-5.744-5.367-5.744c-1.131,1.153-2.773,4.398-2.445,5.547
					l-1.629-0.494c-0.413,1.064-0.736,2.863,0.489,4.084c-0.655-0.171-1.781-0.494-1.781-0.494
					c-0.337,1.634-0.583,4.559,1.373,6.686l-1.054,0.493c-0.342,1.544,1.463,3.244,1.463,3.244c3.267,0.66,4.079,0.66,9.28-1.862
					c1.145,1.629,1.396,4.46,1.396,4.46c0.812,1.822,2.853,2.791,7.915,0.987c0-1.131-0.094-2.199-0.754-2.701
					c2.971,0.224,3.913-0.799,3.913-0.799l-0.732-0.902c1.382-1.252,2.352-2.598,2.294-5.205
					C131.198,37.088,131.377,34.562,130.542,32.686z M126.871,40.943l-2.782,0.403l-4.577-0.776l4.694,4.362
					c0,0-2.383-1.494-2.711-1.328c-0.318,0.188-1.31-1.019-1.31-1.019c-1.643-4.685-6.592-1.795-9.688-1.642
					c0.88-0.471,3.9-1.652,3.9-1.652s-5.111-0.924-5.587-3.042c2.315,1.682,6.484,2.234,8.014,2.351
					c2.06-0.848-6.825-6.202-6.65-6.377c0.152-0.175,2.925,1.445,4.33,2.356l-2.324-6.372l2.666,4.352c0,0,1.283,3.079,3.329,4.685
					c2.567-3.024,1.431-10.339,1.683-10.357c0.256,0,0.897,2.952,0.897,2.952l1.391-0.996l4.73-5.645l-2.611,4.263l-2.769,3.096
					l-0.17,1.4c0,0,6.776-4.016,6.875-3.751c0.099,0.282-7.261,5.111-7.35,5.703c-0.108,0.619-1.144,2.284-2.02,4.331
					c1.661,0.893,8.683-1.319,8.714-0.996c0.018,0.341-6.7,2.288-6.7,2.674C120.845,40.314,126.871,40.943,126.871,40.943z"/>
				<path class="st0" d="M154.069,34.647c-0.283-0.893-0.974-2.23-2.392-2.414c0.503-0.22,1.418-0.588,1.418-0.588
					c-0.624-1.23-1.956-3.276-4.299-3.635l0.431-0.88c-0.566-1.176-2.603-1.391-2.603-1.391c-2.45,1.247-2.998,1.66-5.102,5.968
					c-1.584-0.493-3.182-2.216-3.182-2.216c-1.454-0.772-3.275-0.363-5.645,3.374c0.579,0.745,1.163,1.392,1.84,1.382
					c-2.033,1.373-2.131,2.522-2.131,2.522l0.929,0.215c-0.256,1.517-0.22,2.886,1.162,4.55c0,0,1.154,1.759,2.666,2.54
					c0.058-1.337,2.93-6.3,2.93-6.3c0.049,2.01-0.812,4.308-2.19,7.27c0.319,1.288,4.375,4.945,6.718,5.502
					c1.279-1.84,2.553-5.236,2.652-6.004l0.871,0.009c0.637-0.915,0.538-4.128-0.579-5.555c2.589,1.131,6.408,1.014,6.408,1.014
					c0.162-1.337-0.435-4.276-1.212-4.855L154.069,34.647z M147.451,36.177c0,0-2.391-1.346-4.573-1.364
					c-0.116,3.294,4.348,7.462,4.178,7.602c-0.153,0.135-2.082-1.468-2.082-1.468l-0.404,1.346l-0.202,6.107l-0.467-4.124
					l0.233-3.406l-0.597-1.005c0,0-2.379,6.067-2.585,5.928c-0.193-0.117,2.145-7.013,1.894-7.462
					c-0.238-0.431-0.413-2.038-0.88-3.814c-1.553,0.256-5.008,5.268-5.178,5.062c-0.171-0.206,3.204-4.9,3.02-5.152
					c-0.206-0.242-4.465,2.419-4.465,2.419l1.606-1.692l3.379-1.835l-5.264-0.454c0,0,2.301-0.233,2.423-0.516
					c0.125-0.265,1.382,0,1.382,0c3.451,2.212,5.21-2.19,7.166-3.836c-0.363,0.74-1.727,3.06-1.727,3.06s3.833-2.01,5.192-0.88
					c-2.356,0.085-5.354,1.849-6.404,2.558c-0.911,1.598,7.592,0.561,7.566,0.772c-0.013,0.18-2.639,0.538-4.021,0.673l4.766,2.953
					L147.451,36.177z"/>
				<path class="st0" d="M141.191,55.581c-0.22-0.821-0.858-2.064-2.239-2.306c0.511-0.171,1.422-0.458,1.422-0.458
					c-0.547-1.14-1.764-3.051-4.061-3.514l0.476-0.74c-0.512-1.104-2.513-1.378-2.513-1.378c-2.49,1.018-3.02,1.378-5.317,5.165
					c-1.521-0.494-3.025-2.15-3.025-2.15c-1.386-0.749-3.204-0.462-5.73,2.841c0.538,0.691,1.09,1.301,1.75,1.337
					c-2.064,1.149-2.216,2.194-2.216,2.194l0.906,0.229c-0.319,1.364-0.341,2.616,0.925,4.196c0,0,1.072,1.62,2.517,2.406
					c0.121-1.207,3.195-5.605,3.195-5.605c-0.058,1.84-1.023,3.895-2.504,6.489c0.251,1.203,4.088,4.703,6.345,5.331
					c1.36-1.629,2.782-4.64,2.908-5.34l0.848,0.045c0.682-0.803,0.736-3.724-0.305-5.079c2.505,1.144,6.287,1.212,6.287,1.212
					c0.206-1.212-0.22-3.913-0.983-4.452L141.191,55.581z M134.594,56.693c0,0-2.293-1.337-4.42-1.436
					c-0.278,2.962,3.922,6.956,3.747,7.068c-0.166,0.125-1.97-1.409-1.97-1.409l-0.466,1.198l-0.503,5.537l-0.265-3.774l0.39-3.092
					l-0.547-0.925c0,0-2.616,5.385-2.814,5.268c-0.202-0.117,2.428-6.273,2.212-6.682c-0.202-0.399-0.296-1.889-0.691-3.518
					c-1.521,0.166-5.178,4.564-5.34,4.371c-0.157-0.184,3.397-4.299,3.218-4.542c-0.175-0.229-4.501,1.983-4.501,1.983l1.652-1.436
					l3.41-1.516l-5.165-0.669c0,0,2.298-0.08,2.436-0.35c0.135-0.242,1.351,0.072,1.351,0.072c3.302,2.158,5.233-1.75,7.234-3.186
					c-0.395,0.668-1.822,2.71-1.822,2.71s3.855-1.651,5.147-0.566c-2.333-0.044-5.362,1.445-6.435,2.033
					c-0.969,1.431,7.449,0.853,7.422,1.037c-0.022,0.162-2.621,0.386-3.998,0.435l4.559,2.881L134.594,56.693z"/>
				<path class="st0" d="M139.705,79.785c0,0-0.206-1.18-2.553-2.486c0.745-0.023,1.368-0.736,1.974-1.526
					c-2.885-3.751-4.972-4.039-6.538-3.186c0,0-1.71,1.884-3.42,2.477c-2.647-4.326-3.267-4.73-6.103-5.869
					c0,0-2.271,0.341-2.845,1.579l0.556,0.871c-2.607,0.521-3.985,2.701-4.595,4.011c0,0,1.041,0.328,1.62,0.53
					c-1.589,0.26-2.293,1.691-2.544,2.611l1.504,0.476c-0.844,0.61-1.333,3.715-1.091,5.079c0,0,4.312-0.099,7.153-1.418
					c-1.194,1.544-1.113,4.86-0.318,5.789l0.969-0.054c0.157,0.771,1.795,4.2,3.352,6.04c2.575-0.727,6.911-4.748,7.193-6.085
					c-1.719-2.971-2.822-5.286-2.899-7.386c0,0,3.509,4.977,3.675,6.345c1.633-0.888,2.818-2.746,2.818-2.746
					c1.45-1.813,1.409-3.231,1.041-4.797L139.705,79.785z M134.478,78.358l1.911,1.661c0,0-4.931-2.508-5.142-2.235
					c-0.206,0.278,3.882,4.918,3.68,5.151c-0.175,0.225-4.361-4.77-6.107-4.949c-0.417,1.862-0.521,3.54-0.759,4.003
					c-0.251,0.475,2.796,7.462,2.585,7.597c-0.238,0.139-3.262-5.986-3.262-5.986l-0.592,1.077l0.445,3.5l-0.265,4.272l-0.606-6.264
					l-0.547-1.364c0,0-2.047,1.75-2.235,1.615c-0.188-0.125,4.542-4.689,4.223-8.081c-2.419,0.135-5.039,1.665-5.039,1.665
					l-4.339,1.75l5.155-3.338c-1.553-0.036-4.536-0.265-4.545-0.458c-0.032-0.198,9.558,0.381,8.446-1.221
					c-1.225-0.664-4.694-2.324-7.346-2.28c1.472-1.252,5.865,0.606,5.865,0.606s-1.656-2.302-2.105-3.056
					c2.293,1.602,4.514,6.04,8.288,3.563c0,0,1.378-0.359,1.521-0.081c0.161,0.287,2.759,0.395,2.759,0.395l-5.874,0.781
					L134.478,78.358z"/>
				<path class="st0" d="M47.97,32.686c0,0-1.122,0.323-1.781,0.494c1.229-1.22,0.893-3.02,0.484-4.084l-1.62,0.494
					c0.319-1.149-1.311-4.393-2.45-5.547c0,0-3.738,2.729-5.367,5.744c0-2.199-2.289-5.331-3.594-5.744l-0.83,0.637
					c-0.633-0.637-4.384-2.921-7-3.733c-1.791,2.28-2.93,8.8-2.284,10.267c3.514,1.795,6.04,3.347,7.503,5.295
					c0,0-6.439-2.603-7.503-3.823c-0.844,1.876-0.646,4.402-0.646,4.402c-0.058,2.607,0.911,3.953,2.284,5.205l-0.718,0.902
					c0,0,0.924,1.023,3.895,0.799c-0.664,0.503-0.741,1.571-0.741,2.701c5.062,1.804,7.1,0.835,7.916-0.987
					c0,0,0.242-2.832,1.382-4.46c5.228,2.522,6.022,2.522,9.289,1.862c0,0,1.785-1.701,1.463-3.244l-1.055-0.493
					C48.553,37.245,48.297,34.32,47.97,32.686z M39.677,39.291c0,0,3.002,1.18,3.908,1.652c-3.101-0.153-8.046-3.043-9.692,1.642
					c0,0-0.996,1.207-1.324,1.019c-0.318-0.166-2.697,1.328-2.697,1.328l4.676-4.362l-4.568,0.776l-2.773-0.403
					c0,0,6.022-0.629,6.022-1.023c0-0.386-6.718-2.333-6.695-2.674c0.022-0.323,7.036,1.889,8.71,0.996
					c-0.866-2.046-1.907-3.712-2.015-4.331c-0.094-0.592-7.458-5.421-7.354-5.703c0.107-0.265,6.861,3.751,6.861,3.751l-0.166-1.4
					l-2.76-3.096L27.207,23.2l4.72,5.645l1.387,0.996c0,0,0.641-2.952,0.893-2.952c0.265,0.018-0.88,7.332,1.701,10.357
					c2.032-1.606,3.316-4.685,3.316-4.685l2.679-4.352l-2.333,6.372c1.396-0.911,4.183-2.531,4.349-2.356
					c0.153,0.175-8.719,5.528-6.659,6.377c1.512-0.117,5.681-0.669,8.001-2.351C44.793,38.367,39.677,39.291,39.677,39.291z"/>
				<path class="st0" d="M21.67,36.77c0,0-0.085-1.149-2.118-2.522c0.669,0.009,1.252-0.637,1.826-1.382
					c-2.378-3.737-4.195-4.146-5.631-3.374c0,0-1.607,1.723-3.186,2.216c-2.114-4.308-2.648-4.721-5.102-5.968
					c0,0-2.046,0.215-2.616,1.391l0.453,0.88c-2.365,0.359-3.679,2.405-4.317,3.635c0,0,0.925,0.368,1.414,0.588
					C0.978,32.417,0.287,33.754,0,34.647l1.324,0.507c-0.798,0.579-1.387,3.518-1.23,4.855c0,0,3.819,0.117,6.426-1.014
					c-1.117,1.427-1.22,4.64-0.57,5.555l0.857-0.009c0.09,0.767,1.369,4.164,2.666,6.004c2.315-0.556,6.377-4.214,6.699-5.502
					c-1.378-2.962-2.23-5.259-2.194-7.27c0,0,2.876,4.963,2.948,6.3c1.49-0.781,2.652-2.54,2.652-2.54
					c1.373-1.665,1.427-3.034,1.163-4.55L21.67,36.77z M13.754,33.319l3.356,1.835l1.616,1.692c0,0-4.254-2.661-4.452-2.419
					c-0.202,0.252,3.196,4.945,3.011,5.152c-0.184,0.206-3.63-4.806-5.178-5.062c-0.467,1.777-0.637,3.383-0.879,3.814
					c-0.238,0.449,2.095,7.346,1.893,7.462c-0.22,0.139-2.563-5.928-2.563-5.928l-0.61,1.005l0.229,3.406l-0.476,4.124l-0.193-6.107
					l-0.413-1.346c0,0-1.912,1.602-2.091,1.468c-0.157-0.139,4.303-4.308,4.173-7.602c-2.15,0.018-4.559,1.364-4.559,1.364
					l-3.962,1.472l4.783-2.953c-1.396-0.135-4.025-0.493-4.034-0.673c-0.009-0.211,8.486,0.826,7.566-0.772
					c-1.045-0.709-4.043-2.473-6.399-2.558c1.378-1.131,5.187,0.88,5.187,0.88s-1.364-2.32-1.714-3.06
					c1.948,1.647,3.707,6.049,7.162,3.836c0,0,1.252-0.265,1.378,0c0.112,0.283,2.428,0.516,2.428,0.516L13.754,33.319z"/>
				<path class="st0" d="M34.333,56.572c0,0-0.144-1.046-2.213-2.194c0.655-0.036,1.207-0.646,1.746-1.337
					c-2.526-3.303-4.353-3.59-5.731-2.841c0,0-1.499,1.656-3.029,2.15c-2.284-3.787-2.827-4.147-5.322-5.165
					c0,0-1.993,0.273-2.505,1.378l0.494,0.74c-2.315,0.462-3.527,2.374-4.079,3.514c0,0,0.92,0.287,1.431,0.458
					c-1.405,0.242-2.01,1.485-2.257,2.306l1.324,0.422c-0.749,0.538-1.203,3.24-0.96,4.452c0,0,3.769-0.068,6.265-1.212
					c-1.041,1.355-0.983,4.276-0.301,5.079l0.853-0.045c0.13,0.7,1.548,3.711,2.903,5.34c2.28-0.628,6.098-4.128,6.35-5.331
					c-1.49-2.594-2.451-4.649-2.505-6.489c0,0,3.06,4.398,3.191,5.605c1.445-0.785,2.499-2.406,2.499-2.406
					c1.283-1.579,1.256-2.832,0.938-4.196L34.333,56.572z M29.769,55.307l1.647,1.436c0,0-4.308-2.212-4.488-1.983
					c-0.184,0.242,3.37,4.357,3.213,4.542c-0.17,0.193-3.814-4.205-5.344-4.371c-0.373,1.629-0.476,3.119-0.682,3.518
					c-0.224,0.408,2.401,6.565,2.213,6.682c-0.188,0.117-2.814-5.268-2.814-5.268l-0.543,0.925l0.386,3.092l-0.269,3.774
					l-0.485-5.537l-0.466-1.198c0,0-1.809,1.535-1.984,1.409c-0.174-0.112,4.03-4.106,3.738-7.068
					c-2.113,0.099-4.416,1.436-4.416,1.436l-3.837,1.494l4.564-2.881c-1.373-0.049-3.989-0.273-4.012-0.435
					c-0.018-0.184,8.419,0.395,7.436-1.037c-1.077-0.588-4.106-2.077-6.417-2.033c1.275-1.086,5.134,0.566,5.134,0.566
					s-1.445-2.042-1.84-2.71c2.006,1.436,3.944,5.344,7.247,3.186c0,0,1.22-0.314,1.364-0.072c0.126,0.27,2.419,0.35,2.419,0.35
					l-5.174,0.669L29.769,55.307z"/>
				<path class="st0" d="M38.802,78.798c-0.238-0.92-0.942-2.351-2.517-2.611c0.574-0.202,1.615-0.53,1.615-0.53
					c-0.619-1.31-1.983-3.491-4.595-4.011l0.548-0.871c-0.566-1.238-2.854-1.579-2.854-1.579c-2.827,1.14-3.446,1.544-6.089,5.869
					c-1.723-0.592-3.428-2.477-3.428-2.477c-1.571-0.853-3.644-0.566-6.534,3.186c0.602,0.79,1.23,1.503,1.979,1.526
					c-2.365,1.305-2.544,2.486-2.544,2.486l1.032,0.256c-0.373,1.567-0.399,2.985,1.032,4.797c0,0,1.203,1.858,2.832,2.746
					c0.157-1.368,3.675-6.345,3.675-6.345c-0.072,2.1-1.175,4.416-2.89,7.386c0.278,1.337,4.613,5.358,7.193,6.085
					c1.553-1.84,3.182-5.268,3.334-6.04l0.973,0.054c0.781-0.929,0.866-4.245-0.305-5.789c2.841,1.319,7.139,1.418,7.139,1.418
					c0.261-1.364-0.233-4.469-1.086-5.079L38.802,78.798z M31.308,80.019c0,0-2.625-1.53-5.039-1.665
					c-0.323,3.392,4.425,7.956,4.222,8.081c-0.197,0.135-2.239-1.615-2.239-1.615l-0.543,1.364l-0.601,6.264l-0.278-4.272l0.476-3.5
					L26.686,83.6c0,0-3.016,6.125-3.244,5.986c-0.22-0.135,2.813-7.121,2.58-7.597c-0.251-0.462-0.341-2.14-0.759-4.003
					c-1.759,0.179-5.928,5.174-6.12,4.949c-0.198-0.234,3.886-4.873,3.68-5.151c-0.202-0.273-5.124,2.235-5.124,2.235l1.889-1.661
					l3.899-1.678L17.608,75.9c0,0,2.612-0.108,2.765-0.395c0.153-0.278,1.539,0.081,1.539,0.081
					c3.747,2.477,5.977-1.961,8.261-3.563c-0.449,0.754-2.1,3.056-2.1,3.056s4.393-1.858,5.861-0.606
					c-2.639-0.045-6.107,1.615-7.337,2.28c-1.117,1.602,8.481,1.023,8.445,1.221c-0.027,0.192-2.989,0.421-4.555,0.458l5.165,3.338
					L31.308,80.019z"/>
			</g>
		</g>
	</g>
	<path class="st1" d="M593.373,67.544c2.172,0,3.772-1.675,3.772-3.591c0-1.972-1.6-3.588-3.772-3.588
		c-2.588,0-4.05,1.616-4.05,3.588C589.322,65.869,590.773,67.544,593.373,67.544"/>
	<path class="st1" d="M686.719,87.964c0.844-0.012,2.066-0.053,1.913-1.644c-0.775-8.157-7.204-13.679-16.37-13.679
		c-11.148,0-17.795,8.273-17.795,17.426c0,9.554,5.807,17.427,17.261,17.427c7.976,0,13.07-2.16,16.386-9.082
		c0.188-0.359,0.328-1.085-1.181-1.7c-1.969,4.897-5.504,8.685-12.451,8.685c-9.86,0-13.004-9.716-12.692-17.433H686.719
		 M671.574,74.357c7.601,0,9.363,6.619,9.363,11.507h-19.045C662.032,82.37,664.932,74.704,671.574,74.357z"/>
	<path class="st1" d="M441.203,99.856V60.424c0-3.157-0.847-5.844-4.972-6.513c-0.581-0.053-0.528-0.45-0.528-0.45l12.214-4.766
		v51.161c0,3.091,1.628,5.885,3.8,6.332c0,0,0.319,0.113,0.319,0.513h-14.948c0-0.506,0.328-0.559,0.328-0.559
		C439.594,105.707,441.203,102.947,441.203,99.856"/>
	<path class="st1" d="M417.736,99.856V68.322c0-3.163-0.894-5.841-5.004-6.522c-0.588-0.053-0.519-0.444-0.519-0.444l12.207-4.769
		v43.269c0,3.091,1.638,5.885,3.819,6.332c0,0,0.291,0.169,0.291,0.513h-14.892c-0.1-0.372,0.269-0.581,0.269-0.581
		C416.098,105.672,417.736,102.947,417.736,99.856"/>
	<path class="st1" d="M478.272,74.419c6.838,0,11.448,5.441,11.448,15.823c0,10.432-4.654,15.836-11.507,15.836
		c-6.866,0-11.604-5.404-11.604-15.836C466.609,79.861,471.403,74.419,478.272,74.419 M478.272,73.032
		c-10.904,0-18.952,7.338-18.952,17.211c0,9.907,7.985,17.236,18.892,17.236c10.892,0,18.798-7.329,18.798-17.236
		C497.011,80.37,489.161,73.032,478.272,73.032z"/>
	<path class="st1" d="M342.123,106.213c-13.757-0.306-22.474-9.388-22.474-24.371c0-14.033,7.763-24.19,21.049-24.19
		c9.823,0,18.227,5.141,19.374,12.764c0.078,0.559,0.85,0.541,0.85,0.541l0.247-12.882c0,0-0.019-0.319-0.269-0.297
		c-0.534,0.056-1.616,0.263-2.382,0.222c-2.006-0.053-9.213-2.316-17.455-2.316c-18.667,0-29.396,10.851-29.396,26.859
		c0,15.436,10.951,25.962,29.462,25.962c6.463,0,15.401-2.51,20.802-4.525c0.381-0.137,0.484-1.284-0.191-1.041
		C356.836,104.425,349.273,106.347,342.123,106.213"/>
	<path class="st1" d="M347.52,84.392c0,0,0.006,0.475,0.431,0.544c5.166,0.7,4.441,5.651,4.441,9.285v5.116
		c0,1.435,0.009,3.188,0.009,3.188c2.844-0.372,4.8-0.928,6.576-1.438v0.016c0.678-0.144,1.963-0.553,1.963-0.553
		s-1.572-0.603-1.572-3.25c0,0-0.009-2.481-0.009-4.841c0-4.604,0.775-6.782,3.613-7.523c0.416-0.116,0.416-0.544,0.416-0.544
		H347.52"/>
	<path class="st1" d="M394.593,87.227v13.142c-2.241,1.71-3.935,3.247-7.201,3.744c-3.331,0.494-6.2-1.581-6.154-5.082
		c0.056-2.681,0.925-6.644,7.776-9.642C391.774,88.189,394.593,87.227,394.593,87.227 M401.294,81.357
		c0-4.638-2.997-7.779-8.188-8.498c-6.929-0.988-12.857,1.41-16.104,5.125c-1.534,1.731-1.731,3.632-1.2,4.916
		c0.541,1.31,1.613,2.035,3.378,1.803c2.703-0.384,2.866-2.788,3.053-5.869c0.206-3.185,3.553-4.666,7.263-4.666
		c2.669,0,5.219,1.903,5.219,4.835v6.626c0,0-5.335,2.081-10.735,4.113c-7.754,2.869-9.479,6.648-9.479,10.382
		c0,4.113,2.572,7.191,7.566,7.191c3.95,0,7.41-1.841,12.648-5.575c0.244,3.594,2.366,4.972,5.76,4.972c2.313,0,4.991,0,4.991,0
		s0.025-0.481-0.338-0.572c-0.197-0.044-3.688-0.994-3.835-4.991V81.357z"/>
	<path class="st1" d="M267.982,57.84c-0.566-0.162-0.453-0.591-0.459-0.619h15.655c-0.081,0.55-0.425,0.575-0.791,0.675
		c-2.31,0.628-3.588,3.41-3.588,6.454l-0.013,15.251c0.288,18.192-2.1,30.318-24.658,27.968c-5.629-0.584-11.12-3.775-11.12-9.238
		c0-2.578,1.306-4.785,4.613-4.785c1.725,0,3.591,1.453,3.591,3.6c0,3.313-2.613,3.06-2.56,4.775
		c0.066,1.597,1.391,3.935,9.301,4.266c10.573,0.447,13.051-6.754,13.692-13.782c0.322-3.76,0.116-28.056,0.116-28.056
		C271.76,61.287,270.357,58.577,267.982,57.84"/>
	<path class="st1" d="M255.174,88.411c0,0-3.9-0.169-8.666-6.776c1.759-2.644,3.097-6.029,3.753-8.473
		c0.359-1.438,0.897-4.085,4.872-5.204c0.394-0.109,0.413-0.619,0.413-0.619h-11.232c0,0-0.103,0.416,0.309,0.581
		c2.766,0.909,3.985,1.678,4.013,4.982c0.022,2.522-1.375,5.504-2.819,7.726c-3.072-3.875-5.747-7.916-8.438-11.845
		c2.603-1.925,5.575-3.385,5.575-6.538c0-2.431-1.456-4.16-4.66-4.282c-5.219-0.225-8.079,2.763-8.079,6.107
		c0,1.194,0.478,2.675,2.581,6.219c-4.213,2.35-8.382,5.225-8.382,9.879c0,5.25,4.4,9.094,10.467,9.094
		c3.663,0,6.382-1.313,8.898-3.753c1.703,1.794,2.153,3.469,7.691,3.538h4.057C255.528,89.049,255.621,88.646,255.174,88.411
		 M237.935,59.037c2.056,0.078,2.925,1.535,2.71,3.347c-0.175,1.569-1.119,3.941-3.86,5.513c-2.147-3.128-2.653-4.894-2.653-5.826
		C234.132,59.984,236.085,58.952,237.935,59.037z M230.197,82.945c-3.563-6.172,0.603-10.348,3.269-11.71
		c2.997,4.56,6.301,8.96,9.613,13.451C241.886,86.224,234.354,89.211,230.197,82.945z"/>
	<path class="st1" d="M178.915,57.215l36.069,0.006l1.55,10.457c-0.634,0.019-0.75-0.191-1.038-0.931
		c-2.325-6.866-8.676-7.676-22.005-7.676h-3.45v21.327h9.238c5.972,0,9.626-1.544,10.267-5.141c0.034-1.213,0.744-1.022,0.744-1.022
		v14.22c-0.697,0.028-0.834-0.897-0.906-1.288c-0.603-3.954-4.075-4.86-10.104-4.86h-9.238v22.533h10.857
		c8.282,0,13.97-3.716,16.564-8.673c0.734-1.475,1.069-1.25,1.319-1.266l-1.95,11.785h-37.953c0-0.547,0.306-0.547,0.666-0.675
		c2.078-0.422,3.528-3.419,3.528-6.441l0.022-35.25c0-3.035-1.309-5.816-3.585-6.482C178.849,57.687,178.911,57.34,178.915,57.215"
		/>
	<path class="st1" d="M600.149,106.069c0.531,0.106,0.581,0.525,0.581,0.644l-14.898-0.006c0-0.541,0.472-0.588,0.813-0.703
		c2.035-0.412,3.303-3.328,3.303-6.288l0.028-19.267c0-2.988-1.441-6.054-3.503-6.379c-0.391-0.053-0.628-0.15-0.603-0.591
		l10.782-0.009v26.246C596.651,102.712,597.88,105.519,600.149,106.069"/>
	<path class="st1" d="M646.75,106.097c0.475,0.106,0.631,0.313,0.619,0.591h-14.87c0-0.538,0.434-0.547,0.813-0.663
		c2.013-0.425,3.303-3.36,3.303-6.322l-0.013-14.404c0-4.291-0.503-10.007-6.11-10.223c-7.535-0.269-10.591,5.96-10.591,12.276
		l0.019,12.351c0,2.991,1.26,5.854,3.307,6.279c0.306,0.078,0.763,0.116,0.763,0.697h-14.895c0-0.538,0.425-0.559,0.763-0.675
		c2.025-0.412,3.357-3.338,3.357-6.301l0.006-19.264c0-2.985-1.481-5.857-3.528-6.329c-0.422-0.094-0.513-0.347-0.556-0.641
		l10.795-0.009l0.006,6.372c1.706-4.341,5.929-7.254,13.242-7.201c7.466,0.075,10.091,5.107,10.091,11.895l0.013,15.176
		C643.28,102.694,644.693,105.682,646.75,106.097"/>
	<path class="st1" d="M709.624,106.044c0.866,0.194,0.769,0.619,0.769,0.644l-14.911,0.019c0-0.541,0.378-0.594,0.756-0.713
		c2.016-0.413,3.347-3.319,3.347-6.279l0.028-19.267c0-2.988-1.085-5.56-3.507-6.254c-0.381-0.116-0.625-0.275-0.575-0.716
		l10.776-0.009l0.019,8.001c1.359-4.435,4.997-8.829,10.788-8.829c4.51,0,6.979,2.588,6.979,6.529c0,2.7-1.288,5.382-4.013,5.122
		c-2.36-0.231-2.935-1.813-2.8-3.932c0.047-0.95,0.494-2.278,0.584-3.157c0.112-1.022-0.572-2.525-3.107-2.113
		c-4.75,0.775-8.469,7.844-8.469,15.17l0.019,9.454C706.308,102.712,707.274,105.356,709.624,106.044"/>
	<path class="st1" d="M747.971,73.469c-0.006,0.088,0,0.584,0.525,0.694c3.7,0.741,5.776,3.228,4.632,6.447l-5.826,16.786
		l-7.391-16.126c-1.878-4.138-0.438-6.626,1.447-7.138c0.325-0.097,0.656-0.116,0.7-0.663h-16.276c0,0.413,0.141,0.591,0.6,0.694
		c2.181,0.409,4.06,3.203,5.522,6.516l12.354,25.324l-1.672,4.813c-2.047,6.51-4.86,8.341-7.135,8.341
		c-2.313,0-3.432-1.522-3.432-3.275c0-1.759-0.569-3.566-2.538-3.782c-2.013-0.225-3.56,1.203-3.51,3.797
		c0.056,2.925,2.519,5.71,7.101,5.71c6.641,0,9.557-4.004,12.373-12.198l10.026-28.806c1.7-4.704,5.538-6.041,7.569-6.441
		c0.35-0.119,0.766-0.181,0.766-0.694H747.971"/>
	<path class="st1" d="M571.452,57.883c-0.806-0.169-0.641-0.741-0.641-0.669h16.476c0,0.547-0.441,0.547-0.809,0.681
		c-2.041,0.394-5.866,1.641-7.626,6.432l-15.748,42.422c-0.147,0.488-0.913,0.738-1.175-0.009l-12.551-42.923l-13.986,42.932
		c-0.128,0.488-0.803,0.738-1.059,0l-14.276-42.422c-0.972-3.047-3.266-6.038-5.497-6.46c-0.491-0.081-0.641-0.216-0.641-0.653
		h16.392c-0.069,0.547-0.503,0.563-0.853,0.663c-1.906,0.513-2.435,3.428-1.484,6.451l9.538,29.793l10.326-33.156
		c-1.066-1.491-2.272-2.828-3.607-3.088c-0.481-0.081-0.619-0.225-0.625-0.663h15.951c0.044,0.6-0.572,0.681-0.906,0.778
		c-1.938,0.503-2.388,3.313-1.419,6.335l8.46,29.759l10.763-29.718C577.634,61.071,575.221,58.652,571.452,57.883"/>
	<path class="st1" d="M226.756,106.641c-1.65,0-2.807-1.156-2.807-2.71c0-1.544,1.206-2.7,2.903-2.7c1.7,0,2.863,1.113,2.863,2.7
		c0,1.553-1.163,2.71-2.913,2.71H226.756"/>
	<path class="st1" d="M283.771,106.641c-1.65,0-2.81-1.156-2.81-2.71c0-1.544,1.206-2.7,2.91-2.7c1.694,0,2.86,1.113,2.86,2.7
		c0,1.553-1.166,2.71-2.913,2.71H283.771"/>
</g>
</svg>